# xmcd
#
# Track frame offsets:
#	150
#	14472
#	27742
#	41070
#	54915
#	68005
#	87710
#	102260
#	116115
#	127830
#	142095
#	154537
#	166212
#	182112
#	198495
#	212315
#	223685
#	237545
#	250762
#	264832
#
# Disc length: 3714 seconds
#
# Revision: 2
# Processed by: cddbd v1.5.2PL0 Copyright (c) Steve Scherf et al.
# Submitted via: EasyCDDAExtractor 10.0.2.1
#
DISCID=1f0e8014
DTITLE=Lasse Hoikka and Souvarit - 40 tuttua and toivotuinta
DYEAR=2004
DGENRE=Other
TTITLE0=Sinisen‰ lintuna haluaisin lent‰‰
TTITLE1=Tanssi kanssain
TTITLE2=Kauneimmat ruusut
TTITLE3=Ihmismieli haaveilee ain onnestaan
TTITLE4=Kolme ruusua
TTITLE5=J‰t‰t j‰lkeesi vain kyyneleet
TTITLE6=Vanhaan aikaan
TTITLE7=Balladi tukkijoelta
TTITLE8=Tessalonika
TTITLE9=Kultainen harmonikka
TTITLE10=Kuin Havajilla
TTITLE11=Vanhan kartanon kehr‰‰v‰ rukki
TTITLE12=Joutsenen piilopaikka
TTITLE13=Usko, toivo, rakkaus
TTITLE14=Kultamaa
TTITLE15=J‰tk‰n laulu yh‰ soi
TTITLE16=Lumiperhonen
TTITLE17=Viimeinen motti
TTITLE18=Kaunisp‰‰n huumaa
TTITLE19=Tunturin kukka
EXTD=
EXTT0=
EXTT1=
EXTT2=
EXTT3=
EXTT4=
EXTT5=
EXTT6=
EXTT7=
EXTT8=
EXTT9=
EXTT10=
EXTT11=
EXTT12=
EXTT13=
EXTT14=
EXTT15=
EXTT16=
EXTT17=
EXTT18=
EXTT19=
PLAYORDER=
